<?xml version="1.0" encoding="UTF-8"?>
<svg width="22px" height="22px" viewBox="0 0 22 22" version="1.1" xmlns="http://www.w3.org/2000/svg" xmlns:xlink="http://www.w3.org/1999/xlink">
    <!-- Generator: Sketch 51.2 (57519) - http://www.bohemiancoding.com/sketch -->
    <title>dribbble</title>
    <desc>Created with Sketch.</desc>
    <defs></defs>
    <g id="Page-1" stroke="none" stroke-width="1" fill="none" fill-rule="evenodd">
        <g id="Desktop-Copy-7" transform="translate(-540.000000, -388.000000)" fill="#FFFFFF">
            <g id="Group-9" transform="translate(272.000000, 135.000000)">
                <g id="Group-8" transform="translate(0.000000, 243.000000)">
                    <g id="Group-3">
                        <g id="Group-10">
                            <g id="Group-11" transform="translate(213.000000, 4.000000)">
                                <g id="Group-5" transform="translate(48.000000, 0.000000)">
                                    <g id="dribbble" transform="translate(7.000000, 6.000000)">
                                        <path d="M10.8977273,0.363636364 C4.96910511,0.363636364 0.159090909,5.17365057 0.159090909,11.1022727 C0.159090909,17.0364879 4.96910511,21.8409091 10.8977273,21.8409091 C16.8263494,21.8409091 21.6363636,17.0364879 21.6363636,11.1022727 C21.6363636,5.17365057 16.8263494,0.363636364 10.8977273,0.363636364 L10.8977273,0.363636364 Z M17.7156428,5.31347656 C18.9237393,6.73410866 19.6899858,8.53506747 19.8242188,10.5094105 C17.889027,10.4087358 15.5735085,10.4087358 13.7166193,10.58212 C13.4817116,9.98925781 13.2412109,9.40758168 12.9783381,8.8482777 C15.1204723,7.9198331 16.770419,6.70055043 17.7156428,5.31347656 L17.7156428,5.31347656 Z M10.8977273,2.15340909 C13.0678267,2.15340909 15.0589489,2.92524858 16.6082209,4.21164773 C15.635032,5.44211648 14.1081321,6.51038707 12.2064986,7.32137784 C11.1661932,5.39737216 9.96928267,3.74183239 8.6940696,2.43865412 C9.40438565,2.25967685 10.1370739,2.15340909 10.8977273,2.15340909 L10.8977273,2.15340909 Z M6.84836648,3.13219105 C8.14035866,4.4185902 9.3540483,6.05735085 10.4167259,7.97576349 C8.39763849,8.59099787 6.08212003,8.94335938 3.60999645,8.94335938 C3.14018111,8.94335938 2.68155185,8.92658026 2.22851563,8.89861506 C2.8717152,6.37615412 4.57759233,4.28435724 6.84836648,3.13219105 L6.84836648,3.13219105 Z M1.96564276,10.6772017 C2.47460938,10.6995739 2.98916903,10.7107599 3.50932173,10.7051669 C6.32821378,10.6716087 8.95134943,10.2297585 11.2053445,9.50825639 C11.41788,9.95010653 11.6192294,10.4031428 11.8093928,10.8673651 C11.5017756,10.9400746 11.2277166,11.0183771 11.0095881,11.1078658 C7.92782315,12.399858 5.50044389,14.4860618 4.18607955,17.0085227 C2.79900568,15.4312855 1.94886364,13.3674538 1.94886364,11.1022727 C1.94886364,10.9568537 1.95445668,10.8170277 1.96564276,10.6772017 L1.96564276,10.6772017 Z M10.8977273,20.0511364 C8.82830256,20.0511364 6.92666903,19.3464134 5.41095526,18.166282 C6.60227273,15.8060192 8.72762784,13.8540483 11.4066939,12.6403587 C11.6583807,12.5229048 11.9939631,12.4278232 12.3798828,12.3439276 C12.6986861,13.2276278 12.9839311,14.1448864 13.2356179,15.0957031 C13.6215376,16.5778587 13.8955966,18.0432351 14.0633878,19.4638672 C13.0790128,19.8386009 12.0163352,20.0511364 10.8977273,20.0511364 L10.8977273,20.0511364 Z M15.7357067,18.6249112 C15.5679155,17.1875 15.2938565,15.7109375 14.9023438,14.2120028 C14.7121804,13.4849077 14.4940518,12.7801847 14.2591442,12.0922408 C16.0153587,11.9468217 18.1183416,11.9691939 19.7906605,12.0922408 C19.4886364,14.8384233 17.9449574,17.1986861 15.7357067,18.6249112 L15.7357067,18.6249112 Z" id="Shape"></path>
                                    </g>
                                </g>
                            </g>
                        </g>
                    </g>
                </g>
            </g>
        </g>
    </g>
</svg>