<?xml version="1.0" encoding="UTF-8"?>
<svg width="25px" height="25px" viewBox="0 0 25 25" version="1.1" xmlns="http://www.w3.org/2000/svg" xmlns:xlink="http://www.w3.org/1999/xlink">
    <!-- Generator: Sketch 51.2 (57519) - http://www.bohemiancoding.com/sketch -->
    <title>social-github</title>
    <desc>Created with Sketch.</desc>
    <defs></defs>
    <g id="Page-1" stroke="none" stroke-width="1" fill="none" fill-rule="evenodd">
        <g id="Desktop-Copy-7" transform="translate(-590.000000, -386.000000)" fill="#FFFFFF">
            <g id="Group-9" transform="translate(272.000000, 135.000000)">
                <g id="Group-8" transform="translate(0.000000, 243.000000)">
                    <g id="Group-3">
                        <g id="Group-10">
                            <g id="Group-11" transform="translate(213.000000, 4.000000)">
                                <g id="Group-6" transform="translate(100.000000, 0.000000)">
                                    <g id="social-github" transform="translate(5.568182, 4.772727)">
                                        <path d="M11.9318182,0 C5.34268466,0 0,5.48117898 0,12.2354403 C0,17.6420455 3.41974432,22.2230114 8.16051136,23.8423295 C8.23508523,23.8583097 8.29900568,23.8636364 8.36292614,23.8636364 C8.80504261,23.8636364 8.97549716,23.5387074 8.97549716,23.256392 C8.97549716,22.9634233 8.96484375,22.1963778 8.95951705,21.1736506 C8.51207386,21.274858 8.11257102,21.3174716 7.75568182,21.3174716 C5.45987216,21.3174716 4.93785511,19.5330256 4.93785511,19.5330256 C4.39453125,18.1214489 3.61150568,17.7432528 3.61150568,17.7432528 C2.5727983,17.0134943 3.60617898,16.9921875 3.68607955,16.9921875 L3.69140625,16.9921875 C4.88991477,17.0987216 5.51846591,18.2599432 5.51846591,18.2599432 C6.11505682,19.3039773 6.9140625,19.596946 7.62784091,19.596946 C8.18714489,19.596946 8.69318182,19.4158381 8.99147727,19.2773438 C9.09801136,18.4889915 9.40696023,17.9509943 9.74786932,17.6420455 C7.10049716,17.3330966 4.31463068,16.2837358 4.31463068,11.5962358 C4.31463068,10.259233 4.77805398,9.16725852 5.53977273,8.3149858 C5.41725852,8.00603693 5.00710227,6.75958807 5.65696023,5.07634943 C5.65696023,5.07634943 5.7421875,5.04971591 5.92329545,5.04971591 C6.35475852,5.04971591 7.32954545,5.21484375 8.93821023,6.3334517 C9.89169034,6.06178977 10.9090909,5.92862216 11.9264915,5.92329545 C12.9385653,5.92862216 13.9612926,6.06178977 14.9147727,6.3334517 C16.5234375,5.21484375 17.4982244,5.04971591 17.9296875,5.04971591 C18.1107955,5.04971591 18.1960227,5.07634943 18.1960227,5.07634943 C18.8458807,6.75958807 18.4357244,8.00603693 18.3132102,8.3149858 C19.074929,9.17258523 19.5383523,10.2645597 19.5383523,11.5962358 C19.5383523,16.2943892 16.7471591,17.3277699 14.0891335,17.631392 C14.5152699,18.0095881 14.8987926,18.7553267 14.8987926,19.8952415 C14.8987926,21.5305398 14.8828125,22.8515625 14.8828125,23.2510653 C14.8828125,23.5387074 15.0479403,23.8636364 15.4900568,23.8636364 C15.5539773,23.8636364 15.6285511,23.8583097 15.703125,23.8423295 C20.4492188,22.2230114 23.8636364,17.6367188 23.8636364,12.2354403 C23.8636364,5.48117898 18.5209517,0 11.9318182,0 L11.9318182,0 Z" id="Shape"></path>
                                    </g>
                                </g>
                            </g>
                        </g>
                    </g>
                </g>
            </g>
        </g>
    </g>
</svg>