<?xml version="1.0" encoding="UTF-8"?>
<svg width="17px" height="17px" viewBox="0 0 17 17" version="1.1" xmlns="http://www.w3.org/2000/svg" xmlns:xlink="http://www.w3.org/1999/xlink">
    <!-- Generator: Sketch 51.2 (57519) - http://www.bohemiancoding.com/sketch -->
    <title>linkedIn</title>
    <desc>Created with Sketch.</desc>
    <defs></defs>
    <g id="Page-1" stroke="none" stroke-width="1" fill="none" fill-rule="evenodd">
        <g id="Desktop-Copy-7" transform="translate(-494.000000, -389.000000)" fill="#FFFFFF">
            <g id="Group-9" transform="translate(272.000000, 135.000000)">
                <g id="Group-8" transform="translate(0.000000, 243.000000)">
                    <g id="Group-3">
                        <g id="Group-10">
                            <g id="Group-11" transform="translate(213.000000, 4.000000)">
                                <g id="Group-4">
                                    <g id="social-linkedin-outline" transform="translate(9.545455, 7.954545)">
                                        <g id="Group">
                                            <g id="linkedIn">
                                                <path d="M3.45419172,15.9090909 L3.45419172,5.27610085 L0.0557127697,5.27610085 L0.0557127697,15.9090909 L3.45419172,15.9090909 L3.45419172,15.9090909 Z M1.88185356,3.6665483 C3.01467987,3.6665483 3.72037496,2.85245028 3.72037496,1.83327415 C3.70180403,0.795454545 3.01467987,0 1.90042448,0 C0.786169084,0 0.0619030775,0.795454545 0.0619030775,1.83327415 C0.0619030775,2.85245028 0.767598161,3.6665483 1.85709232,3.6665483 L1.88185356,3.6665483 L1.88185356,3.6665483 Z" id="Shape"></path>
                                                <path d="M11.9844358,5.0337358 C10.1830562,5.0337358 9.40926778,6.05291193 8.91404316,6.76136364 L8.91404316,5.28231534 L5.50937389,5.28231534 L5.50937389,15.9090909 L8.91404316,15.9090909 L8.91404316,9.85617898 C8.91404316,9.54545455 8.93880439,9.23473011 9.031659,9.01722301 C9.27927131,8.39577415 9.83639901,7.75568182 10.7773258,7.75568182 C12.009197,7.75568182 12.5044216,8.70649858 12.5044216,10.098544 L12.5044216,15.9090909 L15.9090909,15.9090909 L15.9090909,9.70081676 C15.9090909,6.51278409 14.2253272,5.0337358 11.9844358,5.0337358 L11.9844358,5.0337358 Z" id="Shape"></path>
                                            </g>
                                        </g>
                                    </g>
                                </g>
                            </g>
                        </g>
                    </g>
                </g>
            </g>
        </g>
    </g>
</svg>