<?xml version="1.0" encoding="UTF-8"?>
<svg width="16px" height="21px" viewBox="0 0 16 21" version="1.1" xmlns="http://www.w3.org/2000/svg" xmlns:xlink="http://www.w3.org/1999/xlink">
    <!-- Generator: Sketch 51.2 (57519) - http://www.bohemiancoding.com/sketch -->
    <title>Resume</title>
    <desc>Created with Sketch.</desc>
    <defs></defs>
    <g id="Page-1" stroke="none" stroke-width="1" fill="none" fill-rule="evenodd">
        <g id="Desktop-Copy-7" transform="translate(-647.000000, -389.000000)" fill="#FFFFFF">
            <g id="Group-9" transform="translate(272.000000, 135.000000)">
                <g id="Group-8" transform="translate(0.000000, 243.000000)">
                    <g id="Group-3">
                        <g id="Group-10">
                            <g id="Group-7" transform="translate(365.000000, 4.000000)">
                                <g id="Resume" transform="translate(10.000000, 7.000000)">
                                    <path d="M15.1935369,5.57087476 C15.1572857,5.42069129 15.0899621,5.31193774 15.012281,5.21872041 L10.6776752,0.469815341 C10.5792791,0.36106179 10.4653468,0.309274384 10.3358783,0.241950758 C10.1856948,0.16426965 10.0199751,0.159090909 9.8490767,0.159090909 L1.5682706,0.159090909 C0.926106771,0.159090909 0.340909091,0.65625 0.340909091,1.34502249 L0.340909091,18.7041607 C0.340909091,19.398112 0.926106771,20.0454545 1.5682706,20.0454545 L14.1577888,20.0454545 C14.7999527,20.0454545 15.2556818,19.398112 15.2556818,18.7041607 L15.2556818,6.06285511 C15.2556818,5.87642045 15.2349669,5.7417732 15.1935369,5.57087476 L15.1935369,5.57087476 Z M10.3358783,2.572384 L13.3395478,5.86088423 L10.3358783,5.86088423 L10.3358783,2.572384 L10.3358783,2.572384 Z M1.99810606,18.3934363 L1.99810606,1.82146662 L8.67868134,1.82146662 L8.67868134,6.05249763 C8.67868134,6.81895123 9.37263258,7.5180812 10.1339074,7.5180812 L13.5984848,7.5180812 L13.5984848,18.3934363 L1.99810606,18.3934363 L1.99810606,18.3934363 Z" id="Shape"></path>
                                </g>
                            </g>
                        </g>
                    </g>
                </g>
            </g>
        </g>
    </g>
</svg>